<svg xmlns="http://www.w3.org/2000/svg" version="1.1" xmlns:xlink="http://www.w3.org/1999/xlink" viewBox="0 0 1920 1080"><rect width="1920" height="1080" fill="#94cafa"></rect><g transform="matrix(1.1108147002324285,0.29764190186789885,-0.29764190186789885,1.1108147002324285,57.5137939068652,-337.06366275012533)"><path d="M0,-1080C9.035944779367881,-1002.5631267747639,57.800100055394935,-764.5811812229923,54.21566867620729,-615.3787606485834C50.63123729701964,-466.1763400741744,-3.165778052755922,-341.63921226716013,-21.506588275125893,-184.78547655354606C-39.84739849749586,-27.93174083993199,-63.114829274856454,165.44968195151114,-55.829192658012545,325.7436536331011C-48.543556041168635,486.037625314691,11.467338638974189,623.6639486388851,22.20723142593758,776.9783535359935C32.94712421290097,930.2927584331019,10.187326482898365,1082.2690908985312,8.610164063767797,1245.6300830157513C7.0330016446372285,1408.9910751329714,14.179284255115467,1604.7493200752722,12.744256911154167,1757.1443062393137C11.309229567192867,1909.5392924033551,2.1240428185256945,2092.857384373219,0,2160L 1920 2160 L 1920 -1080 Z" fill="url(&quot;#SvgjsLinearGradient1754&quot;)"></path><path d="M160,-1080C154.011513167584,-997.9946401059461,123.19479909008689,-760.1142714735172,124.06907900550402,-587.967840635677C124.94335892092116,-415.82140979783685,156.72970850233725,-228.16201855597063,165.24567949250283,-47.121414972958945C173.76165048266841,133.91918861005274,175.13103204087324,308.1684370832446,175.16490494649761,498.27578086239305C175.198777852122,688.3831246415415,165.23358112874732,902.1007117124781,165.4489169262491,1093.5226477019316C165.66425272375088,1284.9445836913853,177.36507255254986,1469.0611714161032,176.45691973150835,1646.8073967991147C175.54876691046684,1824.5536221821262,162.74281995525138,2074.467899466519,160,2160L 1920 2160 L 1920 -1080 Z" fill="url(&quot;#SvgjsLinearGradient1755&quot;)"></path><path d="M320,-1080C311.12343730515323,-998.2837648285711,258.9363343485092,-750.7203633275803,266.7406238309193,-589.7025889714263C274.54491331332935,-428.68481461527216,353.7120201955013,-266.3400873999485,366.8257368944603,-113.89335386307525C379.93945359341933,38.55337967379805,356.2176836176062,170.10090778876332,345.4229240246736,324.9778122498135C334.62816443174097,479.85471671086367,308.53713390540076,657.8522212431037,302.0571793368647,815.3680729032258C295.5772247683286,972.8839245633478,299.9736579170285,1131.655643378116,306.5431966134573,1270.072922210546C313.11273530988615,1408.490201042976,339.2316109510137,1497.5505662662292,341.47441151543745,1645.8717458978049C343.7172120798612,1794.1929255293805,323.57906858590627,2074.311957649634,320,2160L 1920 2160 L 1920 -1080 Z" fill="url(&quot;#SvgjsLinearGradient1756&quot;)"></path><path d="M480,-1080C473.1773705751573,-963.3686092352882,441.72120418716764,-592.5314766536762,439.0642234509437,-380.2116554117293C436.40724271471976,-167.8918341697823,456.21820875816474,-14.23379366631363,464.0581155826564,193.91892745168184C471.89802240714806,402.07164856967734,490.94712075605537,640.7797992740765,486.1036643978936,868.7046712962434C481.2602080397319,1096.6295433184105,436.01465483333493,1346.2522714673908,434.997377433686,1561.4681595846835C433.98010003403704,1776.6840477019762,472.4995629056143,2060.2446932641137,480,2160L 1920 2160 L 1920 -1080 Z" fill="url(&quot;#SvgjsLinearGradient1757&quot;)"></path><path d="M640,-1080C636.2192341559502,-969.5340054276008,626.179413892937,-626.5911269895233,617.3154049357008,-417.20403256560485C608.4513959784647,-207.81693814168636,589.253452140923,-33.71818664462438,586.8159462565834,176.32256654351096C584.3784403722439,386.3633197316463,585.3172371343517,619.9366721465723,602.6903696296635,843.0404865632073C620.0635021249752,1066.1443009798425,684.8364695000648,1295.452200803856,691.0547412284542,1514.9454530433213C697.2730129568436,1734.4387052827867,648.5091235380758,2052.4909088405534,640,2160L 1920 2160 L 1920 -1080 Z" fill="url(&quot;#SvgjsLinearGradient1758&quot;)"></path><path d="M800,-1080C808.227223868811,-989.0571823187179,843.8588706799427,-721.2099726923296,849.3633432128665,-534.3430939123073C854.8678157457904,-347.4762151322849,845.5348758121463,-143.09335451742973,833.0268351975432,41.20127268013391C820.51879458294,225.49589987769755,777.8404857606266,403.2830859668054,774.315099525248,571.4246692730746C770.7897132898694,739.5662525793439,811.6761859539042,882.5873249139332,811.8745177852717,1050.0507725177492C812.0728496166391,1217.5142201215651,777.4841768109982,1391.213816982262,775.505090513453,1576.2053548959705C773.5260042159077,1761.196892809679,795.9175150855755,2062.700892482662,800,2160L 1920 2160 L 1920 -1080 Z" fill="url(&quot;#SvgjsLinearGradient1759&quot;)"></path><path d="M960,-1080C970.1960708606408,-1020.5320789711191,1024.0178718007005,-863.6095003810794,1021.1764251638449,-723.1924738267146C1018.3349785269893,-582.7754472723498,945.5084081941653,-384.83270656180434,942.9513201788667,-237.4978406738107C940.3942321635681,-90.16297478581711,1013.2505365112133,32.589542713889074,1005.8338970720531,160.81672150124697C998.4172576328929,289.04390028860485,898.4479761146962,391.95687969067023,898.451483543905,531.8652320503367C898.4549909731139,671.7735844100031,999.7149751721358,853.9757068833233,1005.8549416473061,1000.2668356592454C1011.9949081224763,1146.5579644351676,947.1740758213327,1291.9686527049598,935.2912823949264,1409.6120047058694C923.40848896852,1527.255356706779,930.4400614880227,1581.062281782347,934.5581810888683,1706.1269476647021C938.6763006897139,1831.1916135470572,955.7596968481447,2084.3544912774505,960,2160L 1920 2160 L 1920 -1080 Z" fill="url(&quot;#SvgjsLinearGradient1760&quot;)"></path><path d="M1120,-1080C1126.7901908919634,-991.0773140683792,1159.4018148128584,-716.3053504109131,1160.7411453517802,-546.4638844102755C1162.080475890702,-376.6224184096378,1141.927404143185,-233.8636397242934,1128.0359832335303,-60.951203996174115C1114.1445623238756,111.96123173194516,1080.3731874482016,299.3185735335603,1077.3926198938514,491.0107299584403C1074.412052339501,682.7028863833203,1100.73583835312,911.525895201178,1110.1525779074288,1089.201734553106C1119.5693174617377,1266.877573905034,1132.251820204276,1378.5993884955267,1133.8930572197046,1557.065766070009C1135.534294235133,1735.5321436444913,1122.3155095366174,2059.5109610116683,1120,2160L 1920 2160 L 1920 -1080 Z" fill="url(&quot;#SvgjsLinearGradient1761&quot;)"></path><path d="M1280,-1080C1279.765278305723,-978.7493400980144,1282.9876656789884,-684.4110292129271,1278.591669834338,-472.4960405880862C1274.1956739896877,-260.5810519632453,1262.5385441295493,-40.23042610118128,1253.6240249320986,191.4899317490459C1244.7095057346478,423.2102895992731,1210.5096121309336,694.8936863275298,1225.104554649634,917.826106513277C1239.6994971683346,1140.758526699024,1332.044439152574,1322.0554706157416,1341.1936800443016,1529.0844528635287C1350.3429209360293,1736.1134351113158,1290.1989466740501,2054.847408810588,1280,2160L 1920 2160 L 1920 -1080 Z" fill="url(&quot;#SvgjsLinearGradient1762&quot;)"></path><path d="M1440,-1080C1448.3223995600918,-979.2191934817207,1494.7562038247486,-690.6239659664722,1489.9343973605507,-475.3151608903245C1485.112590896353,-260.0063558141768,1414.7503240906892,-14.908501228981464,1411.0691612148132,211.85283045688604C1407.3879983389372,438.61416214275357,1464.823858203278,659.5287689699011,1467.847420105295,885.2528292248805C1470.870982007312,1110.97688947986,1433.851769311131,1353.7393301909096,1429.2105326269152,1566.1971919867628C1424.5692959426995,1778.655053782616,1438.2017554378192,2061.032865331127,1440,2160L 1920 2160 L 1920 -1080 Z" fill="url(&quot;#SvgjsLinearGradient1763&quot;)"></path><path d="M1600,-1080C1591.4596853026924,-950.5835033759221,1552.884618830188,-582.3495884632262,1548.7581118161543,-303.5010202555326C1544.6316048021206,-24.65245204783895,1564.0673774470283,327.33582106533527,1575.2409579157984,593.0914092461617C1586.4145383845685,858.8469974269881,1611.6730876147415,1029.8810770371197,1615.7995946287751,1291.032508829426C1619.9261016428088,1552.1839406217323,1602.6332657714624,2015.1720848049044,1600,2160L 1920 2160 L 1920 -1080 Z" fill="url(&quot;#SvgjsLinearGradient1764&quot;)"></path><path d="M1760,-1080C1768.3250780980725,-972.6908319587443,1819.6603363921101,-654.7600554563871,1809.950468588435,-436.1449917524655C1800.2406007847596,-217.5299280485438,1715.458674037764,24.521170244467925,1701.7407931779485,231.69038222353012C1688.022912318133,438.85959420259235,1719.9899019942281,598.2456150962794,1727.6431834295413,806.8702801219076C1735.2964648648544,1015.4949451475359,1742.2676790280846,1257.9167523976175,1747.6604817898276,1483.4383723772996C1753.0532845515706,1708.9599923569817,1757.943413631638,2047.2397287295498,1760,2160L 1920 2160 L 1920 -1080 Z" fill="url(&quot;#SvgjsLinearGradient1765&quot;)"></path></g><defs><linearGradient x1="0.1" y1="0" x2="0" y2="1" id="SvgjsLinearGradient1754"><stop stop-color="#94cafa" offset="0"></stop><stop stop-color="#94dbfa" offset="0"></stop></linearGradient><linearGradient x1="0.1" y1="0" x2="0" y2="1" id="SvgjsLinearGradient1755"><stop stop-color="#9ecffa" offset="0"></stop><stop stop-color="#9edefa" offset="0.08333333333333333"></stop></linearGradient><linearGradient x1="0.1" y1="0" x2="0" y2="1" id="SvgjsLinearGradient1756"><stop stop-color="#a8d4fb" offset="0"></stop><stop stop-color="#a8e2fb" offset="0.16666666666666666"></stop></linearGradient><linearGradient x1="0.1" y1="0" x2="0" y2="1" id="SvgjsLinearGradient1757"><stop stop-color="#b2d9fb" offset="0"></stop><stop stop-color="#b2e5fb" offset="0.25"></stop></linearGradient><linearGradient x1="0.1" y1="0" x2="0" y2="1" id="SvgjsLinearGradient1758"><stop stop-color="#bddefc" offset="0"></stop><stop stop-color="#bde8fc" offset="0.3333333333333333"></stop></linearGradient><linearGradient x1="0.1" y1="0" x2="0" y2="1" id="SvgjsLinearGradient1759"><stop stop-color="#c7e3fc" offset="0"></stop><stop stop-color="#c7ecfc" offset="0.4166666666666667"></stop></linearGradient><linearGradient x1="0.1" y1="0" x2="0" y2="1" id="SvgjsLinearGradient1760"><stop stop-color="#d1e8fd" offset="0"></stop><stop stop-color="#d1effd" offset="0.5"></stop></linearGradient><linearGradient x1="0.1" y1="0" x2="0" y2="1" id="SvgjsLinearGradient1761"><stop stop-color="#dbedfd" offset="0"></stop><stop stop-color="#dbf3fd" offset="0.5833333333333334"></stop></linearGradient><linearGradient x1="0.1" y1="0" x2="0" y2="1" id="SvgjsLinearGradient1762"><stop stop-color="#e5f2fe" offset="0"></stop><stop stop-color="#e5f6fe" offset="0.6666666666666666"></stop></linearGradient><linearGradient x1="0.1" y1="0" x2="0" y2="1" id="SvgjsLinearGradient1763"><stop stop-color="#eff7fe" offset="0"></stop><stop stop-color="#eff9fe" offset="0.75"></stop></linearGradient><linearGradient x1="0.1" y1="0" x2="0" y2="1" id="SvgjsLinearGradient1764"><stop stop-color="#f9fcff" offset="0"></stop><stop stop-color="#f9fdff" offset="0.8333333333333334"></stop></linearGradient><linearGradient x1="0.1" y1="0" x2="0" y2="1" id="SvgjsLinearGradient1765"><stop stop-color="#ffffff" offset="0"></stop><stop stop-color="#ffffff" offset="0.9166666666666666"></stop></linearGradient></defs></svg>