<svg xmlns="http://www.w3.org/2000/svg" viewBox="0 0 1736.76 247.53">
  <switch>
    <g>
      <g fill="#0064ff">
        <path
          d="M252.82 120.75c-6.53-55.96-53.75-97.26-108.65-97.8h-1.22c-4.23.01-8.51.24-12.82.75-15.58 1.82-30.01 6.79-42.76 14.21v-.01c-.28.16-.56.33-.84.5-.24.14-.49.29-.73.43C22.56 76.51 0 163.48 0 216.43l50.94-29.41c17.95 34.21 52.39 56.74 90.8 57.16h1.22c4.23-.01 8.51-.24 12.82-.75 60.67-7.08 104.12-62 97.04-122.68zM813.19 176.13c7.48 14.84 20.82 22.55 38.47 22.5 17.35-.05 26.62-8.43 26.59-18.34-.03-12.08-18-14.82-39.39-19.09-28.2-5.81-59.51-14.39-59.61-49.7-.08-28.18 27.12-52.72 68.32-52.52 32.74-.09 53.26 11.3 68.47 30.7l-35.5 20.62c-6.85-11.13-17.4-17.61-32.88-17.56-16.73.04-24.76 6.88-24.74 16.17.03 10.53 13.66 13.28 38.15 18.48 27.89 5.5 60.75 15.01 60.85 50.93.07 26.01-23.08 55.49-71.72 55.32-36.66.1-60.9-12.54-74.94-35.47l-.06-.1 37.99-21.94zM660.36 176.13c7.48 14.84 20.82 22.55 38.47 22.5 17.35-.05 26.62-8.43 26.59-18.34-.03-12.08-18-14.82-39.39-19.09-28.2-5.81-59.51-14.39-59.61-49.7-.08-28.18 27.12-52.72 68.32-52.52 32.74-.09 53.26 11.3 68.47 30.7l-35.5 20.62c-6.85-11.13-17.4-17.61-32.88-17.56-16.73.04-24.76 6.88-24.74 16.17.03 10.53 13.66 13.28 38.15 18.48 27.89 5.5 60.75 15.01 60.85 50.93.07 26.01-23.08 55.49-71.72 55.32-36.66.1-60.9-12.54-74.94-35.47l-.06-.1 37.99-21.94zM525.52 58.97c-48.23 0-87.33 39.1-87.33 87.33s39.1 87.33 87.33 87.33 87.33-39.1 87.33-87.33-39.1-87.33-87.33-87.33zm0 133.91c-25.72 0-46.58-20.85-46.58-46.58s20.85-46.58 46.58-46.58c25.72 0 46.58 20.85 46.58 46.58s-20.86 46.58-46.58 46.58zM415.58 181.37c-5.38 4.29-16.62 9.58-22.27 9.58-10.94 0-18.44-6.26-18.44-24.08v-66.34h51.98V62.39h-51.98V0l-43.32 25.01v37.38H296.9v38.14h34.65v70.24c0 45.98 21.43 62.87 56.76 62.87 15.64 0 36.5-9.25 47.42-17.38l-20.15-34.89z"
        ></path>
        <g>
          <path
            d="M1325.24 86.82c-11.27-15.22-29.23-24.36-50.85-24.36-42.02 0-79.77 33.19-79.77 85.56s38.67 85.56 79.16 85.56c21.31 0 39.89-9.74 51.46-25.88v22.53h41.41V62.4h-41.41v24.42zM1282 194c-25.27 0-45.67-20.4-45.67-46.28 0-25.88 20.4-46.28 45.67-46.28 25.88 0 45.67 20.7 45.67 46.28S1307.88 194 1282 194zM1484.97 62.47c-20.4 0-37.45 9.13-48.11 24.05V62.4h-42.02v167.83h42.32V139.5c0-25.58 15.22-40.19 35.01-40.19 22.23 0 33.49 14.61 33.49 38.06v92.86h42.93v-99.26c.01-42.93-24.65-68.5-63.62-68.5zM1008.55.01v230.22h41.41v-22.84c10.96 16.44 30.14 26.19 52.07 26.19 40.49 0 78.86-33.19 78.86-85.56s-37.75-85.56-79.16-85.56c-22.23 0-40.5 10.05-51.46 25.88V.01h-41.72zm84.95 101.43c25.27 0 45.37 20.4 45.37 46.28 0 25.88-20.1 46.28-45.37 46.28-25.88 0-45.67-20.7-45.67-46.28s19.79-46.28 45.67-46.28zM1736.76 230.4l-78.31-85.05 70.16-82.96h-51.41l-61.18 71.53V.01h-41.71v230.22h41.71V155.9l65.54 74.33z"
          ></path>
        </g>
      </g>
    </g>
  </switch>
</svg>
